<svg width="169" height="48" viewBox="0 0 169 48" fill="none" xmlns="http://www.w3.org/2000/svg">
<g clip-path="url(#clip0_255_303)">
<path opacity="0.935" fill-rule="evenodd" clip-rule="evenodd" d="M25.7622 -0.0839157C25.9301 -0.0839157 26.0979 -0.0839157 26.2657 -0.0839157C26.7588 0.324586 27.2343 0.772139 27.6923 1.25874C28.0181 1.85416 28.2977 2.46953 28.5315 3.1049C28.5847 2.80266 28.6966 2.74672 28.8671 2.93706C29.6977 4.38346 29.6418 5.78205 28.6993 7.13287C26.8186 8.43882 25.3081 8.10316 24.1678 6.12587C24.0559 5.45455 24.0559 4.78322 24.1678 4.11189C24.3083 3.71846 24.5322 3.38279 24.8391 3.1049C24.895 3.21679 24.9511 3.32867 25.007 3.44056C26.0801 2.43335 26.3318 1.25852 25.7622 -0.0839157Z" fill="#4FCADB"/>
<path opacity="0.971" fill-rule="evenodd" clip-rule="evenodd" d="M34.6573 3.77622C36.2798 3.77622 37.902 3.77622 39.5245 3.77622C39.5245 5.84615 39.5245 7.91609 39.5245 9.98601C40.6993 9.98601 41.8741 9.98601 43.0489 9.98601C43.0489 11.6084 43.0489 13.2308 43.0489 14.8531C41.8741 14.8531 40.6993 14.8531 39.5245 14.8531C39.4964 19.6647 39.5245 24.4758 39.6084 29.2867C39.7599 29.4883 39.9556 29.6283 40.1958 29.7063C41.1452 29.79 42.0963 29.8181 43.0489 29.7902C43.0489 31.3566 43.0489 32.9231 43.0489 34.4895C40.9593 34.5874 38.8894 34.4474 36.8391 34.0699C35.5744 33.3622 34.875 32.2713 34.7412 30.7972C34.6573 25.4828 34.6293 20.1681 34.6573 14.8531C33.6503 14.8531 32.6433 14.8531 31.6364 14.8531C31.6364 13.2308 31.6364 11.6084 31.6364 9.98601C32.6433 9.98601 33.6503 9.98601 34.6573 9.98601C34.6573 7.91609 34.6573 5.84615 34.6573 3.77622Z" fill="#4FCADB"/>
<path opacity="0.974" fill-rule="evenodd" clip-rule="evenodd" d="M68.056 3.77622C69.6784 3.77622 71.3007 3.77622 72.9231 3.77622C72.8951 12.224 72.9231 20.6716 73.007 29.1189C73.0851 29.359 73.2251 29.5547 73.4266 29.7063C74.4321 29.79 75.4391 29.8181 76.4476 29.7902C76.4476 31.3566 76.4476 32.9231 76.4476 34.4895C75.0479 34.5174 73.6493 34.4895 72.2518 34.4056C70.1195 34.2864 68.8049 33.1955 68.3077 31.1329C68.0595 22.0204 67.9756 12.9015 68.056 3.77622Z" fill="#4FCADB"/>
<path opacity="0.971" fill-rule="evenodd" clip-rule="evenodd" d="M79.3008 47.9161C77.7903 47.9161 76.2798 47.9161 74.7693 47.9161C74.7693 46.5175 74.7693 45.1188 74.7693 43.7203C76.3469 43.7851 77.9135 43.7011 79.4686 43.4685C80.0657 43.151 80.4853 42.6755 80.7273 42.042C80.9745 36.1761 81.0585 30.3019 80.9791 24.4196C79.077 24.4196 77.1748 24.4196 75.2728 24.4196C75.2728 22.8532 75.2728 21.2867 75.2728 19.7203C77.1748 19.7203 79.077 19.7203 80.9791 19.7203C80.951 16.7547 80.9791 13.7897 81.063 10.8252C81.947 6.52886 84.5764 4.17921 88.9511 3.77622C93.1373 3.99323 95.7668 6.11911 96.8392 10.1538C97.0618 12.0487 97.1457 13.9508 97.091 15.8601C95.5246 15.8601 93.958 15.8601 92.3917 15.8601C92.4195 14.4604 92.3917 13.0618 92.3077 11.6643C92.0208 9.78307 90.9298 8.72014 89.035 8.47552C87.2859 8.68698 86.195 9.63803 85.7623 11.3287C85.6784 14.1253 85.6503 16.9225 85.6784 19.7203C87.5804 19.7203 89.4826 19.7203 91.3847 19.7203C91.3847 21.2867 91.3847 22.8532 91.3847 24.4196C89.4826 24.4196 87.5804 24.4196 85.6784 24.4196C85.7064 30.0702 85.6784 35.7206 85.5945 41.3706C85.2997 45.3335 83.2018 47.5153 79.3008 47.9161Z" fill="#4FCADB"/>
<path opacity="0.973" fill-rule="evenodd" clip-rule="evenodd" d="M99.4406 3.77622C101.063 3.77622 102.685 3.77622 104.308 3.77622C104.28 12.2799 104.308 20.7833 104.392 29.2867C104.531 29.4265 104.671 29.5665 104.811 29.7063C105.817 29.79 106.824 29.8181 107.832 29.7902C107.832 31.3566 107.832 32.9231 107.832 34.4895C106.433 34.5174 105.034 34.4895 103.636 34.4056C101.582 34.3084 100.267 33.2736 99.6924 31.3007C99.4442 22.1322 99.3602 12.9574 99.4406 3.77622Z" fill="#4FCADB"/>
<path opacity="0.125" fill-rule="evenodd" clip-rule="evenodd" d="M98.0979 8.30769C98.3216 8.41959 98.3216 8.41959 98.0979 8.30769V8.30769Z" fill="#4FCADB"/>
<path opacity="0.966" fill-rule="evenodd" clip-rule="evenodd" d="M168.252 9.31469C168.252 10.6573 168.252 12 168.252 13.3427C166.908 13.3147 165.565 13.3427 164.224 13.4266C163.429 13.6058 162.898 14.0814 162.629 14.8531C162.414 19.4907 162.302 24.1341 162.294 28.7832C161.316 32.6143 158.854 34.6842 154.909 34.993C153.906 34.9145 152.927 34.7186 151.972 34.4056C151.144 33.9501 150.333 33.4746 149.538 32.979C146.123 35.6288 142.683 35.6566 139.217 33.0629C138.052 31.9923 137.296 30.6777 136.951 29.1189C136.765 22.518 136.625 15.9167 136.531 9.31469C138.154 9.31469 139.776 9.31469 141.399 9.31469C141.365 15.4692 141.337 21.623 141.315 27.7762C142.101 30.3316 143.695 31.031 146.098 29.8741C146.898 29.2253 147.345 28.3861 147.441 27.3566C147.314 21.3464 147.202 15.3324 147.105 9.31469C148.727 9.31469 150.35 9.31469 151.972 9.31469C151.91 15.4689 151.882 21.6227 151.888 27.7762C152.261 29.38 153.268 30.2751 154.909 30.4615C156.35 30.3624 157.301 29.6351 157.762 28.2797C157.786 23.8572 157.898 19.4375 158.098 15.021C158.35 12.1956 159.833 10.3774 162.545 9.56644C164.439 9.33894 166.342 9.25502 168.252 9.31469Z" fill="#4FCADB"/>
<path opacity="0.977" fill-rule="evenodd" clip-rule="evenodd" d="M118.238 9.81818C118.406 9.81818 118.573 9.81818 118.741 9.81818C118.769 12.2804 118.741 14.7419 118.657 17.2028C117.666 19.9527 116.743 22.722 115.888 25.5105C115.944 26.5175 116.448 27.1888 117.399 27.5245C119.525 27.6364 121.65 27.6364 123.776 27.5245C124.727 27.1888 125.231 26.5175 125.287 25.5105C124.432 22.722 123.509 19.9527 122.518 17.2028C122.434 14.7419 122.406 12.2804 122.434 9.81818C129.015 11.2531 132.539 15.337 133.007 22.0699C132.556 28.5429 129.199 32.5989 122.937 34.2378C116.018 35.0321 111.29 32.2068 108.755 25.7622C107.27 19.6983 109.088 14.915 114.21 11.4126C115.5 10.6947 116.842 10.1632 118.238 9.81818Z" fill="#4FCADB"/>
<path opacity="0.967" fill-rule="evenodd" clip-rule="evenodd" d="M-0.0838623 27.9441C-0.0838623 27.4406 -0.0838623 26.9371 -0.0838623 26.4336C1.1961 22.3984 2.56673 18.3704 4.02803 14.3497C4.11191 12.8962 4.13987 11.4416 4.11194 9.98602C5.67837 9.98602 7.24481 9.98602 8.81124 9.98602C8.87487 11.8414 8.79095 13.6875 8.55949 15.5245C7.20987 19.4056 5.89519 23.2936 4.61544 27.1888C4.73749 28.2159 5.24098 28.9991 6.12593 29.5385C7.73651 29.7278 9.3589 29.8117 10.9931 29.7902C12.4476 29.7622 13.9021 29.7343 15.3567 29.7063C16.9801 29.2003 17.6236 28.1094 17.2868 26.4336C15.9521 22.7013 14.6654 18.9531 13.4266 15.1888C13.3427 13.4554 13.3148 11.7212 13.3427 9.98602C14.8532 9.98602 16.3637 9.98602 17.8742 9.98602C17.8102 11.5079 17.8942 13.0184 18.1259 14.5175C19.4473 18.3137 20.734 22.1179 21.9861 25.9301C22.4015 30.0994 20.6392 32.8686 16.6994 34.2378C14.832 34.4214 12.9579 34.5053 11.077 34.4895C9.19605 34.5053 7.32192 34.4214 5.4546 34.2378C2.26344 33.3026 0.417291 31.2047 -0.0838623 27.9441Z" fill="#4FCADB"/>
<path opacity="0.993" fill-rule="evenodd" clip-rule="evenodd" d="M24.4196 9.98602C25.9859 9.98602 27.5525 9.98602 29.1189 9.98602C29.1189 18.1539 29.1189 26.3216 29.1189 34.4895C27.5525 34.4895 25.9859 34.4895 24.4196 34.4895C24.4196 26.3216 24.4196 18.1539 24.4196 9.98602Z" fill="#4FCADB"/>
<path opacity="0.97" fill-rule="evenodd" clip-rule="evenodd" d="M52.1119 9.98601C54.9151 9.69803 57.6004 10.1176 60.1679 11.2448C61.8272 12.1302 62.8064 13.5008 63.1049 15.3566C63.1608 20.0001 63.2169 24.6433 63.2728 29.2867C63.4126 29.4265 63.5525 29.5665 63.6923 29.7063C64.6978 29.79 65.7048 29.8181 66.7133 29.7902C66.7133 31.3566 66.7133 32.9231 66.7133 34.4895C65.3136 34.5174 63.9151 34.4895 62.5175 34.4056C60.6677 34.3902 59.4089 33.5231 58.7413 31.8042C57.6459 33.5689 56.0514 34.4361 53.9581 34.4056C50.1083 35.1603 47.0034 34.0134 44.6434 30.965C43.6241 28.8561 43.4563 26.6742 44.1399 24.4196C45.4596 21.7618 47.6135 20.2793 50.6014 19.972C52.7814 19.6785 54.9632 19.3989 57.1469 19.1329C57.9021 19.0489 58.3217 18.6294 58.4056 17.8741C58.6864 16.1967 57.9871 15.2176 56.3077 14.9371C54.4382 14.7499 52.5921 14.8618 50.7693 15.2727C50.5024 15.4482 50.2507 15.6441 50.014 15.8601C49.6579 16.6615 49.4622 17.5005 49.4266 18.3776C47.9161 18.3776 46.4056 18.3776 44.8951 18.3776C44.5831 14.7183 46.0936 12.1729 49.4266 10.7413C50.3285 10.4325 51.2236 10.1808 52.1119 9.98601ZM57.8182 23.2448C57.986 23.2448 58.1539 23.2448 58.3217 23.2448C58.4716 25.0964 58.2198 26.8867 57.5665 28.6154C57.214 29.1133 56.7384 29.421 56.1399 29.5385C54.3563 29.7865 52.5661 29.8426 50.7693 29.7063C49.0708 29.1768 48.4273 28.0298 48.8392 26.2657C49.4625 24.8741 50.5534 24.1188 52.1119 24C54.0386 23.7454 55.9407 23.4936 57.8182 23.2448Z" fill="#4FCADB"/>
<path opacity="0.125" fill-rule="evenodd" clip-rule="evenodd" d="M87.021 15.8601C87.2447 15.972 87.2447 15.972 87.021 15.8601V15.8601Z" fill="#4FCADB"/>
</g>
<defs>
<clipPath id="clip0_255_303">
<rect width="168.336" height="48" fill="white"/>
</clipPath>
</defs>
</svg>